<?xml version="1.0" encoding="iso-8859-1"?>
<!-- Generator: Adobe Illustrator 21.0.0, SVG Export Plug-In . SVG Version: 6.00 Build 0)  -->
<svg xmlns="http://www.w3.org/2000/svg" xmlns:xlink="http://www.w3.org/1999/xlink" version="1.1" id="Capa_1" x="0px" y="0px" viewBox="0 0 512 512" style="enable-background:new 0 0 512 512;" xml:space="preserve" width="512" height="512">
<g>
	<g>
		<g>
			<g>
				<g>
					<g>
						<g>
							<g>
								<g>
									<g>
										<g>
											<g>
												<circle style="fill:#00C8C8;" cx="256" cy="256" r="256"/>
											</g>
										</g>
									</g>
								</g>
							</g>
						</g>
					</g>
				</g>
			</g>
		</g>
	</g>
	<path style="fill:#1CADB5;" d="M256,512c141.385,0,256-114.615,256-256c0-9.464-0.53-18.804-1.531-28.002L435,152.529   l-13.743,12.779l-64.163-64.164L89.814,215.916l94.264,94.264l-5.492,189.894C203.01,507.813,229.015,512,256,512z"/>
	<g>
		<path style="fill:#FFDA00;" d="M204.635,506.843C221.23,510.223,238.407,512,256,512s34.77-1.777,51.365-5.157l-25.03-315.669    h-52.669L204.635,506.843z"/>
	</g>
	<g>
		<path style="fill:#FFC200;" d="M282.335,191.174H256.5v320.82c17.418-0.033,34.428-1.803,50.865-5.151L282.335,191.174z"/>
	</g>
	<g>
		<path style="fill:#FFDA00;" d="M89.814,450.713c25.696,21.953,55.786,38.907,88.772,49.36l31.642-308.899H157.56L89.814,450.713z"/>
	</g>
	<g>
		<path style="fill:#FFC200;" d="M354.44,191.174h-52.669l31.642,308.899c32.987-10.454,63.076-27.408,88.772-49.36L354.44,191.174z    "/>
	</g>
	<g>
		<path style="fill:#FFFFFF;" d="M262,230.933c31.78,0,57.543-25.763,57.543-57.543S293.78,115.846,262,115.846    c-1.828,0-3.632,0.095-5.416,0.262C248.896,93.374,227.405,77,202.075,77c-26.314,0-48.487,17.67-55.341,41.787    c-5.709-1.898-11.809-2.94-18.155-2.94c-31.78,0-57.543,25.763-57.543,57.543s25.763,57.543,57.543,57.543H262z"/>
	</g>
	<g>
		<path style="fill:#DCE1EB;" d="M262,115.846c-1.828,0-3.632,0.095-5.416,0.262c-7.661-22.657-29.033-38.992-54.25-39.103v153.928    H262c31.78,0,57.543-25.763,57.543-57.543S293.78,115.846,262,115.846z"/>
	</g>
	<g>
		<path style="fill:#E9EDF5;" d="M378.944,272.431c40.348,0,73.056-32.708,73.056-73.056s-32.708-73.056-73.056-73.056    c-2.32,0-4.612,0.121-6.876,0.332C362.308,97.788,335.023,77,302.865,77c-33.408,0-61.558,22.433-70.26,53.052    c-7.248-2.41-14.992-3.733-23.05-3.733c-40.348,0-73.056,32.708-73.056,73.056s32.708,73.056,73.056,73.056H378.944z"/>
	</g>
	<g>
		<path style="fill:#DCE1EB;" d="M378.944,126.318c-2.32,0-4.612,0.121-6.876,0.333C362.308,97.788,335.023,77,302.865,77    c-0.178,0-0.354,0.01-0.531,0.011v195.419h76.611c40.348,0,73.056-32.708,73.056-73.056S419.292,126.318,378.944,126.318z"/>
	</g>
</g>















</svg>
